<svg fill="#FFF" xmlns="http://www.w3.org/2000/svg" data-name="Layer 1" viewBox="0 0 64 80" x="0px" y="0px"><title>technology-innovation-idea-science-process</title><path d="M43.395,48.71289l-1.751-.9668A16.936,16.936,0,0,0,40.71,49.69922l1.85938.73633A14.97006,14.97006,0,0,1,43.395,48.71289Z"/><path d="M45.53516,45.36621l-1.64161-1.14258c-.39306.56446-.78515,1.13867-1.16015,1.71875l1.67871,1.08594C44.77539,46.46777,45.15479,45.91309,45.53516,45.36621Z"/><path d="M47.86084,41.96094l-1.69238-1.06446c-.33741.53516-.71338,1.08887-1.10742,1.65723l1.64257,1.14063C47.11621,43.10059,47.50879,42.52148,47.86084,41.96094Z"/><path d="M49.84961,38.27246l-1.80469-.86133q-.42993.89941-.89892,1.77832l1.76367.94336Q49.4004,39.21436,49.84961,38.27246Z"/><path d="M51.479,34.44434l-1.87207-.70313c-.23242.61817-.48,1.23731-.7417,1.85156l1.84082.78321Q51.11476,35.41358,51.479,34.44434Z"/><path d="M53.91553,24.2959c.05615-.665.08447-1.31348.08447-1.92774l-.001-.19921-2,.01562.001.18359c0,.55762-.02588,1.15039-.07764,1.75977Z"/><path d="M51.54248,18.36719a17.28768,17.28768,0,0,1,.333,1.89551l1.98633-.23633a19.3787,19.3787,0,0,0-.37207-2.11426Z"/><path d="M50.25439,14.74609a17.47021,17.47021,0,0,1,.7461,1.77539l1.88379-.66992a19.26374,19.26374,0,0,0-.832-1.98047Z"/><path d="M48.19824,11.49414a18.208,18.208,0,0,1,1.11817,1.57227L51.00684,11.998a20.19655,20.19655,0,0,0-1.24219-1.748Z"/><path d="M45.49316,8.73926a18.90306,18.90306,0,0,1,1.4253,1.30762l1.42578-1.40235a20.94319,20.94319,0,0,0-1.57666-1.44629Z"/><path d="M45.05615,5.918c-.58447-.39258-1.19873-.76367-1.82666-1.10352l-.95117,1.75977c.57129.30859,1.13037.64648,1.66162,1.0039Z"/><path d="M41.30859,3.89453c-.644-.27441-1.31689-.52246-1.999-.73926L38.7041,5.06152c.62305.19727,1.23584.42383,1.82227.67286Z"/><path d="M34.90479,4.22168c.645.083,1.29052.19531,1.91845.335l.43262-1.95312c-.686-.15137-1.39111-.27442-2.09522-.36622Z"/><path d="M42,54.9292v-.07147a1.87438,1.87438,0,0,0-1.95239-1.89283H23.95239A1.87438,1.87438,0,0,0,22,54.85773v.07147a1.99534,1.99534,0,0,0,1.95239,2.0357H40.04761A1.99534,1.99534,0,0,0,42,54.9292Z"/><path d="M24.75714,58A1.78068,1.78068,0,0,0,23,59.89282v.07147A1.91188,1.91188,0,0,0,24.75714,62H39.24286A1.91188,1.91188,0,0,0,41,59.96429v-.07147A1.78068,1.78068,0,0,0,39.24286,58Z"/><path d="M24,26a8,8,0,0,0,8,8V18A8,8,0,0,0,24,26Z"/><path d="M22.931,52.14966a3.28872,3.28872,0,0,1,.82483-.1145H32V40a14.07546,14.07546,0,0,1-1.70538-.11407l-.43885-2.08783a11.88788,11.88788,0,0,1-1.90319-.51294l-1.43323,1.59967A13.96389,13.96389,0,0,1,23.583,37.16821l.663-2.01837a12.064,12.064,0,0,1-1.39618-1.39612l-2.01831.66284a13.96613,13.96613,0,0,1-1.71643-2.93615l1.59967-1.43317a11.87733,11.87733,0,0,1-.51282-1.90314L18,27.70532V24.29456l2.202-.43885a11.87909,11.87909,0,0,1,.51287-1.9032l-1.59961-1.43322A13.96322,13.96322,0,0,1,20.83179,17.583l2.01837.663a12.064,12.064,0,0,1,1.39612-1.39618l-.66284-2.01831a13.96462,13.96462,0,0,1,2.93615-1.71643l1.43317,1.59967a11.88531,11.88531,0,0,1,1.90314-.51282l.43878-2.08783A14.07365,14.07365,0,0,1,32,12V3.0351c-11.598,0-21,8.37475-21,19.33331,0,5.14862,2.07739,12.19446,5.48175,18.22021C18.38708,43.961,22.37817,48.22424,22.931,52.14966Z"/><rect x="4" y="56" width="2" height="2"/><rect x="4" y="60" width="2" height="2"/><rect x="6" y="58" width="2" height="2"/><rect x="2" y="58" width="2" height="2"/><rect x="59" y="2" width="2" height="2"/><rect x="59" y="6" width="2" height="2"/><rect x="61" y="4" width="2" height="2"/><rect x="57" y="4" width="2" height="2"/><path d="M34,12a2.99121,2.99121,0,0,0,2,2.81628V20H33V32h2v4a.99974.99974,0,0,0,1,1h3v1.18372a3,3,0,1,0,2,0V36a.99974.99974,0,0,0-1-1H37V32h4V30h6.18372a3,3,0,1,0,0-2H41V24h4a.99974.99974,0,0,0,1-1V18.81628a3,3,0,1,0-2,0V22H41V20H38V14.81628A2.995,2.995,0,1,0,34,12Z"/></svg>
